{"title":"The Green Inferno 2015 HDRIP x264 AC3 TiTAN","uid":12583176,"size":1580399070,"categoryP":"video","categoryS":"movies","magnet":"?xt=urn:btih:717927d7305d82c37e32e498212628733674d02a&amp;dn=The+Green+Inferno+2015+HDRIP+x264+AC3+TiTAN&amp;tr=udp%3A%2F%2Ftracker.leechers-paradise.org%3A6969&amp;tr=udp%3A%2F%2Fzer0day.ch%3A1337&amp;tr=udp%3A%2F%2Fopen.demonii.com%3A1337&amp;tr=udp%3A%2F%2Ftracker.coppersurfer.tk%3A6969&amp;tr=udp%3A%2F%2Fexodus.desync.com%3A6969","seeders":1,"leechers":0,"uploader":"xxxlavalxxx","files":2,"time":1444977016,"description":"http://extraimago.com/image/9es\r\n \nhttp://www.imdb.com/title/tt2403021/\r\n\r\n\r\nA group of student activists travels to the Amazon to save the rain forest and soon discover that they are not alone, and that no good deed goes unpunished.\r\n\r\nDirector: Eli Roth\r\nWriters: Guillermo Amoedo, Eli Roth\r\nStars: Lorenza Izzo, Ariel Levy, Aaron Burns \r\nGenres: Adventure | Horror\r\nCountry: Chile | USA\r\nLanguage: English\r\n\r\n\r\nSource: Playnow -THX BUDDY\r\n\r\nGeneral\r\n\r\nFormat: Matroska\r\nFormat version: Version 2\r\nFile size: 1.47 GiB\r\nDuration: 1h 40mn\r\nOverall bit rate mode: Variable\r\nOverall bit rate: 2 094 Kbps\r\nEncoded date: UTC 2015-10-16 01:52:55\r\n\r\nVideo\r\nID: 1\r\nFormat: AVC\r\nFormat/Info: Advanced Video Codec\r\nFormat profile:   \r\nFormat settings, CABAC: Yes\r\nFormat settings, ReFrames: 3 frames\r\nCodec ID: V_MPEG4/ISO/AVC\r\nDuration: 1h 40mn\r\nBit rate mode: Variable\r\nBit rate: 1 668 Kbps\r\nMaximum bit rate: 40.0 Mbps\r\nWidth: 720 pixels\r\nHeight: 304 pixels\r\nDisplay aspect ratio: 2.35:1\r\nFrame rate mode: Constant\r\nFrame rate: 23.976 fps\r\nColor space: YUV\r\nChroma subsampling: 4:2:0\r\nBit depth: 8 bits\r\nScan type: Progressive\r\nBits/(Pixel*Frame): 0.318\r\nStream size: 1.17 GiB (80%)\r\nDefault: Yes\r\nForced: No\r\nColor primaries: BT.709\r\nTransfer characteristics: BT.709\r\nMatrix coefficients: BT.709\r\n\r\nAudio\r\nID: 2\r\nFormat: AC-3\r\nFormat/Info: Audio Coding 3\r\nMode extension: CM (complete main)\r\nFormat settings, Endianness: Big\r\nCodec ID: A_AC3\r\nDuration: 1h 40mn\r\nBit rate mode: Constant\r\nBit rate: 384 Kbps\r\nChannel(s): 6 channels\r\nChannel positions: Front: L C R, Side: L R, LFE\r\nSampling rate: 48.0 KHz\r\nBit depth: 16 bits\r\nCompression mode: Lossy\r\nStream size: 276 MiB (18%)\r\nLanguage: English\r\nDefault: Yes\r\n\r\n \nhttp://extraimago.com/image/9e7 \nhttp://extraimago.com/image/9ec \nhttp://extraimago.com/image/9e1 \nhttp://extraimago.com/image/9eE \nhttp://extraimago.com/image/9eO","torrent":{"xt":"urn:btih:717927d7305d82c37e32e498212628733674d02a","amp;dn":"The+Green+Inferno+2015+HDRIP+x264+AC3+TiTAN","amp;tr":["udp%3A%2F%2Ftracker.leechers-paradise.org%3A6969","udp%3A%2F%2Fzer0day.ch%3A1337","udp%3A%2F%2Fopen.demonii.com%3A1337","udp%3A%2F%2Ftracker.coppersurfer.tk%3A6969","udp%3A%2F%2Fexodus.desync.com%3A6969"],"infoHash":"717927d7305d82c37e32e498212628733674d02a","infoHashBuffer":{"type":"Buffer","data":[113,121,39,215,48,93,130,195,126,50,228,152,33,38,40,115,54,116,208,42]},"announce":[],"urlList":[]}}